<?xml version="1.0" encoding="utf-8"?>
<!-- Generator: Adobe Illustrator 28.2.0, SVG Export Plug-In . SVG Version: 6.00 Build 0)  -->
<svg version="1.1" xmlns="http://www.w3.org/2000/svg" xmlns:xlink="http://www.w3.org/1999/xlink" x="0px" y="0px"
	 viewBox="0 0 306.72 238.03" style="enable-background:new 0 0 306.72 238.03;" xml:space="preserve">
<style type="text/css">
	.st0{opacity:0.5;}
	.st1{opacity:0.25;fill:#114C90;}
	.st2{opacity:0.75;fill:#114C90;}
	.st3{fill:#0E2A4B;}
	.st4{fill:#114C90;}
	.st5{font-family:'DINCondensed-Bold';}
	.st6{font-size:25.2109px;}
	.st7{fill:none;stroke:#1B344C;stroke-width:0.5;stroke-miterlimit:10;}
	.st8{font-size:7.7947px;}
	.st9{fill:#1B344C;}
</style>
<g id="Layer_1">
	<g class="st0">
		<path class="st1" d="M141.87,129.5c-1.4-3.47-2.49-6.1-2.9-7.13c-0.97,0.18-3.49,0.63-6.69,1.23c-3.21,0.56-7.06,1.27-10.89,1.95
			c-3.77,0.7-7.49,1.34-10.46,1.88c-2.94,0.51-5.2,0.92-6.07,1.06c-0.51,1.13-1.79,4.01-3.46,7.75c-1.68,3.7-3.73,8.28-5.76,12.8
			c-2.04,4.52-4.06,9-5.71,12.61c-1.61,3.6-2.86,6.34-3.35,7.44c0.33,0.97,1.19,3.51,2.29,6.8c1.13,3.32,2.53,7.44,3.93,11.6
			c1.41,4.16,2.82,8.37,3.97,11.81c1.15,3.45,2.05,6.09,2.39,7.15c0.88-0.05,3.1-0.14,6.02-0.25c2.98-0.15,6.68-0.27,10.42-0.45
			c3.81-0.16,7.65-0.34,10.82-0.47c3.21-0.14,5.68-0.26,6.68-0.31c0.55-1.14,2.04-4.09,3.96-7.92c1.94-3.9,4.33-8.69,6.74-13.51
			c2.42-4.89,4.85-9.78,6.86-13.78c1.98-4.02,3.52-7.09,4.12-8.3c-0.42-1.11-1.56-3.89-3.01-7.51c-1.47-3.6-3.24-7.99-4.99-12.37
			C145.02,137.23,143.29,132.94,141.87,129.5"/>
		<path class="st2" d="M197.62,171.77c-1.55-3.58-2.76-6.29-3.21-7.35c-1,0.16-3.6,0.54-6.91,1.07c-3.31,0.48-7.29,1.1-11.25,1.68
			c-3.89,0.61-7.74,1.16-10.81,1.63c-3.04,0.44-5.37,0.8-6.27,0.91c-0.5,1.14-1.74,4.04-3.38,7.81c-1.64,3.73-3.64,8.34-5.63,12.89
			c-1.99,4.55-3.96,9.07-5.58,12.7c-1.57,3.63-2.79,6.39-3.27,7.5c0.37,1,1.33,3.61,2.57,7c1.27,3.41,2.83,7.66,4.4,11.94
			c1.57,4.28,3.15,8.61,4.45,12.16c1.29,3.55,2.29,6.27,2.68,7.36c0.92-0.03,3.21-0.06,6.24-0.09c3.09-0.07,6.93-0.09,10.8-0.17
			c3.95-0.06,7.94-0.13,11.22-0.18c3.33-0.05,5.89-0.11,6.92-0.13c0.54-1.14,2-4.12,3.9-7.97c1.9-3.92,4.26-8.74,6.63-13.59
			c2.38-4.92,4.76-9.84,6.74-13.86c1.95-4.04,3.46-7.13,4.05-8.35c-0.47-1.15-1.73-4.02-3.33-7.75c-1.62-3.71-3.58-8.24-5.52-12.75
			C201.11,179.75,199.19,175.33,197.62,171.77"/>
		<path class="st1" d="M-69.38,180.67c1.6-0.14,3.25-0.3,4.59-0.4c1.33-0.15,2.37-0.25,2.76-0.26c0.3-0.78,0.98-2.74,1.89-5.31
			c0.94-2.58,2.06-5.77,3.19-8.98c1.15-3.24,2.28-6.45,3.22-9.07c0.91-2.64,1.66-4.68,1.93-5.48c-0.16-0.73-0.52-2.57-1.02-4.96
			c-0.48-2.42-1.08-5.35-1.66-8.27c-0.58-2.91-1.18-5.8-1.64-8.13c-0.51-2.33-0.86-4.12-1.02-4.81c-0.38,0.11-1.44,0.34-2.77,0.65
			c-1.33,0.3-2.96,0.7-4.57,1.07c-1.61,0.37-3.21,0.71-4.47,1.03c-1.27,0.27-2.24,0.49-2.6,0.57c-0.25,0.77-0.88,2.7-1.73,5.2
			c-0.82,2.51-1.86,5.6-2.89,8.66c-1,3.08-2.03,6.1-2.86,8.57c-0.81,2.44-1.44,4.33-1.68,5.08c0.09,0.68,0.41,2.41,0.77,4.66
			c0.39,2.28,0.86,5.12,1.34,7.96c0.48,2.84,0.96,5.68,1.33,8.03c0.39,2.32,0.7,4.12,0.81,4.81c0.4-0.02,1.34-0.1,2.62-0.22
			C-72.55,180.95-70.99,180.81-69.38,180.67"/>
		<path class="st1" d="M-81.55,304.09c1.57,0.37,3.19,0.73,4.51,1.04c1.34,0.32,2.36,0.56,2.76,0.65c0.29-0.71,0.99-2.54,1.93-4.9
			c0.93-2.4,2.08-5.37,3.23-8.34c1.15-2.97,2.32-5.96,3.27-8.39c0.94-2.47,1.69-4.35,1.95-5.08c-0.1-0.81-0.46-2.87-0.91-5.54
			c-0.47-2.64-0.99-5.9-1.56-9.15c-0.54-3.23-1.06-6.45-1.49-9.03c-0.44-2.58-0.76-4.58-0.9-5.33c-0.41-0.07-1.43-0.15-2.78-0.24
			c-1.34-0.12-2.94-0.29-4.54-0.41c-1.58-0.15-3.16-0.29-4.43-0.4c-1.26-0.11-2.21-0.18-2.6-0.23c-0.24,0.71-0.91,2.53-1.8,4.88
			c-0.85,2.34-1.9,5.23-2.96,8.11c-1.06,2.84-2.09,5.7-2.95,8c-0.86,2.3-1.49,4.07-1.74,4.73c0.1,0.76,0.38,2.66,0.72,5.17
			c0.38,2.5,0.79,5.6,1.26,8.71c0.43,3.12,0.89,6.25,1.26,8.82c0.34,2.55,0.65,4.51,0.73,5.3c0.39,0.09,1.34,0.32,2.59,0.61
			C-84.72,303.37-83.17,303.73-81.55,304.09"/>
		<path class="st1" d="M-49.42,141.98c0.49,2.39,0.88,4.25,1.03,5c0.45-0.09,1.56-0.3,3.03-0.53c1.45-0.25,3.3-0.57,5.16-0.92
			c1.87-0.3,3.77-0.65,5.31-0.92c1.54-0.27,2.77-0.49,3.25-0.56c0.31-0.85,1.06-3,2.08-5.79c1.01-2.83,2.28-6.33,3.54-9.83
			c1.27-3.5,2.52-7.04,3.56-9.91c1.01-2.88,1.81-5.1,2.14-5.98c-0.19-0.75-0.67-2.63-1.29-5.12c-0.64-2.46-1.37-5.48-2.14-8.5
			c-0.77-2.97-1.49-5.96-2.1-8.35c-0.62-2.37-1.07-4.19-1.25-4.9c-0.49,0.15-1.68,0.52-3.25,0.99c-1.55,0.5-3.44,1.09-5.3,1.65
			c-1.84,0.59-3.67,1.14-5.16,1.61c-1.44,0.45-2.57,0.79-3.01,0.93c-0.26,0.84-0.96,2.92-1.87,5.67c-0.9,2.73-2.04,6.05-3.15,9.39
			c-1.09,3.32-2.21,6.61-3.12,9.3c-0.89,2.66-1.59,4.69-1.86,5.49c0.14,0.72,0.51,2.48,1,4.83c0.49,2.35,1.08,5.24,1.69,8.17
			C-50.52,136.61-49.91,139.59-49.42,141.98"/>
		<path class="st2" d="M-46.07,211.01c1.87-0.03,3.73-0.06,5.29-0.09c1.56-0.03,2.76-0.04,3.22-0.05c0.32-0.81,1.12-2.88,2.15-5.62
			c1.04-2.71,2.32-6.08,3.63-9.47c1.3-3.39,2.61-6.79,3.66-9.56c1.06-2.8,1.88-4.93,2.19-5.78c-0.18-0.82-0.61-2.82-1.19-5.47
			c-0.6-2.62-1.3-5.85-2.01-9.06c-0.73-3.18-1.42-6.36-1.99-8.92c-0.57-2.56-1.01-4.49-1.18-5.27c-0.48,0.07-1.67,0.29-3.23,0.54
			c-1.55,0.23-3.46,0.53-5.33,0.83c-1.85,0.27-3.67,0.57-5.15,0.8c-1.46,0.21-2.59,0.39-3.02,0.46c-0.27,0.8-0.99,2.86-1.95,5.5
			c-0.94,2.62-2.11,5.89-3.26,9.12c-1.15,3.24-2.29,6.45-3.23,9.03c-0.92,2.6-1.63,4.58-1.92,5.36c0.16,0.73,0.49,2.62,0.95,5.1
			c0.47,2.49,1.05,5.56,1.61,8.66c0.57,3.09,1.15,6.21,1.62,8.74c0.48,2.58,0.84,4.52,0.96,5.3c0.44-0.03,1.56-0.03,3.02-0.04
			C-49.76,211.07-47.91,211.06-46.07,211.01"/>
		<path class="st1" d="M-61.41,270.25c0.47,2.69,0.83,4.75,0.96,5.57c0.43,0.04,1.55,0.2,2.99,0.43c1.48,0.19,3.28,0.46,5.12,0.72
			c1.84,0.26,3.74,0.51,5.29,0.75c1.53,0.22,2.73,0.36,3.21,0.44c0.3-0.78,1.11-2.76,2.15-5.35c1.05-2.62,2.34-5.83,3.65-9.07
			c1.3-3.28,2.62-6.54,3.69-9.23c1.09-2.67,1.89-4.74,2.21-5.54c-0.16-0.85-0.61-2.98-1.17-5.76c-0.56-2.79-1.26-6.17-1.94-9.58
			c-0.67-3.37-1.35-6.74-1.89-9.43c-0.54-2.7-0.97-4.77-1.12-5.57c-0.49-0.01-1.69,0-3.23,0.01c-1.56-0.02-3.45,0-5.3,0
			c-1.85,0.01-3.68-0.01-5.15,0c-1.45-0.01-2.56-0.01-3.01-0.03c-0.3,0.78-1.03,2.75-1.98,5.33c-0.95,2.54-2.14,5.67-3.33,8.8
			c-1.15,3.12-2.32,6.23-3.28,8.73c-0.91,2.48-1.65,4.41-1.91,5.14c0.12,0.78,0.44,2.78,0.91,5.38c0.44,2.62,1,5.83,1.54,9.06
			C-62.42,264.33-61.88,267.61-61.41,270.25"/>
		<path class="st1" d="M-17.73,102.59c0.62,2.48,1.13,4.38,1.32,5.14c0.52-0.13,1.82-0.45,3.51-0.88c1.71-0.45,3.87-1,6.05-1.57
			c2.18-0.57,4.39-1.12,6.23-1.6c1.82-0.45,3.23-0.85,3.78-0.99c0.34-0.9,1.21-3.27,2.34-6.37c1.13-3.1,2.54-6.91,3.95-10.77
			c1.38-3.88,2.81-7.76,3.95-10.92c1.14-3.17,2.02-5.6,2.38-6.57c-0.25-0.76-0.86-2.69-1.66-5.24c-0.78-2.53-1.75-5.6-2.73-8.7
			c-0.95-3.03-1.93-6.08-2.71-8.52c-0.79-2.41-1.38-4.3-1.63-5.02c-0.54,0.22-1.94,0.78-3.77,1.5c-1.8,0.69-4,1.56-6.18,2.39
			c-2.16,0.86-4.3,1.69-6.04,2.35c-1.67,0.67-3,1.17-3.48,1.36c-0.3,0.89-1.07,3.18-2.06,6.19c-0.99,2.97-2.21,6.61-3.46,10.25
			c-1.2,3.62-2.43,7.23-3.41,10.12c-1,2.92-1.76,5.14-2.04,6.01c0.2,0.72,0.65,2.55,1.29,4.96c0.61,2.4,1.4,5.39,2.17,8.36
			C-19.17,97.1-18.37,100.13-17.73,102.59"/>
		<path class="st2" d="M-7.46,113.29c-2.16,0.55-4.29,1.04-6.05,1.46c-1.69,0.43-2.98,0.72-3.5,0.85c-0.33,0.87-1.13,3.1-2.18,5.98
			c-1.03,2.91-2.33,6.45-3.63,10c-1.26,3.55-2.55,7.03-3.58,9.89c-1.04,2.81-1.8,4.99-2.11,5.84c0.16,0.73,0.61,2.71,1.18,5.27
			c0.59,2.58,1.32,5.76,2.04,8.96c0.74,3.22,1.48,6.45,2.08,9.07c0.61,2.66,1.06,4.69,1.24,5.5c0.5-0.06,1.82-0.18,3.53-0.37
			c1.73-0.17,3.86-0.4,6.03-0.59c2.18-0.26,4.4-0.46,6.2-0.66c1.84-0.21,3.24-0.34,3.81-0.39c0.35-0.9,1.27-3.19,2.44-6.18
			c1.17-3,2.62-6.7,4.08-10.41c1.46-3.77,2.94-7.51,4.12-10.57c1.2-3.09,2.14-5.44,2.48-6.39c-0.22-0.81-0.8-2.92-1.53-5.63
			c-0.75-2.73-1.66-6.08-2.57-9.39c-0.89-3.29-1.81-6.57-2.53-9.2c-0.73-2.64-1.28-4.65-1.52-5.43c-0.56,0.13-1.95,0.47-3.77,0.92
			C-3.06,112.25-5.25,112.78-7.46,113.29"/>
		<path class="st1" d="M-19.15,183.77c-1.71,0.14-3.01,0.24-3.52,0.3c-0.31,0.85-1.14,3.01-2.25,5.82c-1.07,2.8-2.39,6.22-3.69,9.66
			c-1.3,3.39-2.61,6.79-3.71,9.53c-1.03,2.75-1.83,4.82-2.17,5.65c0.19,0.8,0.61,2.86,1.14,5.59c0.57,2.71,1.27,6.1,1.97,9.48
			c0.72,3.4,1.43,6.83,1.99,9.62c0.58,2.8,1.04,4.93,1.22,5.8c0.52,0.03,1.8,0.11,3.51,0.19c1.69,0.11,3.84,0.21,6,0.35
			c2.18,0.12,4.38,0.21,6.18,0.33c1.85,0.1,3.26,0.17,3.82,0.19c0.35-0.86,1.25-3.05,2.44-5.92c1.19-2.86,2.65-6.42,4.15-9.98
			c1.49-3.6,2.99-7.21,4.2-10.16c1.22-2.96,2.17-5.23,2.52-6.13c-0.21-0.88-0.74-3.11-1.48-6.02c-0.71-2.89-1.57-6.47-2.45-9.99
			c-0.86-3.54-1.71-7.03-2.4-9.84c-0.68-2.83-1.22-4.99-1.42-5.83c-0.55,0.06-1.98,0.18-3.8,0.32c-1.82,0.18-4.02,0.35-6.19,0.55
			C-15.27,183.46-17.43,183.63-19.15,183.77"/>
		<path class="st1" d="M-25.39,253.47c-1.71-0.13-3-0.21-3.51-0.24c-0.34,0.79-1.16,2.88-2.25,5.55c-1.08,2.71-2.42,6-3.75,9.27
			c-1.32,3.26-2.63,6.5-3.68,9.12c-1.05,2.62-1.89,4.62-2.19,5.41c0.16,0.84,0.58,3.02,1.12,5.88c0.57,2.87,1.25,6.39,1.93,9.96
			c0.71,3.58,1.42,7.17,1.99,10.08c0.56,2.94,1.04,5.2,1.2,6.09c0.51,0.1,1.8,0.38,3.49,0.75c1.7,0.35,3.83,0.81,5.99,1.27
			c2.17,0.45,4.36,0.93,6.18,1.33c1.8,0.38,3.2,0.67,3.78,0.78c0.34-0.79,1.25-2.9,2.44-5.61c1.17-2.73,2.65-6.1,4.11-9.5
			c1.48-3.42,2.97-6.87,4.2-9.67c1.22-2.8,2.17-4.96,2.52-5.82c-0.22-0.92-0.73-3.29-1.46-6.36c-0.7-3.07-1.55-6.83-2.41-10.57
			c-0.84-3.72-1.66-7.42-2.34-10.41c-0.68-2.99-1.2-5.24-1.39-6.15c-0.56-0.02-1.98-0.13-3.81-0.26c-1.78-0.14-4.01-0.29-6.17-0.43
			C-21.55,253.74-23.67,253.59-25.39,253.47"/>
		<path class="st2" d="M19.77,70.87c-0.34,0.95-1.24,3.41-2.41,6.63c-1.16,3.19-2.59,7.08-4.03,10.98c-1.43,3.88-2.85,7.76-4,10.89
			c-1.17,3.1-2.04,5.47-2.4,6.4c0.24,0.79,0.81,2.81,1.54,5.45c0.76,2.66,1.69,5.95,2.62,9.27c0.93,3.33,1.87,6.65,2.62,9.38
			c0.78,2.75,1.36,4.86,1.6,5.69c0.61-0.09,2.14-0.41,4.15-0.75c2.05-0.4,4.59-0.87,7.16-1.35c2.6-0.46,5.23-0.97,7.37-1.38
			c2.16-0.39,3.85-0.7,4.52-0.84c0.42-1,1.44-3.53,2.76-6.83c1.34-3.33,3.01-7.46,4.67-11.6c1.67-4.17,3.34-8.33,4.69-11.73
			c1.37-3.43,2.42-6.05,2.83-7.09c-0.29-0.82-1.04-3.02-2.01-5.83c-0.94-2.79-2.12-6.26-3.31-9.65c-1.14-3.4-2.31-6.78-3.24-9.48
			c-0.97-2.7-1.66-4.77-1.96-5.57c-0.66,0.22-2.31,0.75-4.49,1.44c-2.16,0.7-4.79,1.53-7.37,2.38c-2.59,0.82-5.13,1.63-7.17,2.26
			C21.91,70.19,20.38,70.66,19.77,70.87"/>
		<path class="st1" d="M27.93,209.12c2.15-0.05,3.84-0.1,4.5-0.12c0.4-0.98,1.46-3.4,2.82-6.6c1.38-3.18,3.09-7.13,4.77-11.1
			c1.72-4.02,3.46-8.02,4.83-11.29c1.41-3.28,2.49-5.84,2.92-6.8c-0.28-0.94-0.97-3.28-1.88-6.32c-0.91-3.04-2.02-6.76-3.13-10.43
			c-1.1-3.68-2.2-7.31-3.09-10.26c-0.87-2.94-1.54-5.14-1.81-6.04c-0.65,0.1-2.34,0.42-4.51,0.77c-2.14,0.36-4.77,0.81-7.39,1.25
			c-2.56,0.41-5.1,0.84-7.13,1.21c-2.04,0.33-3.56,0.57-4.17,0.67c-0.38,0.95-1.29,3.33-2.51,6.44c-1.22,3.07-2.71,6.87-4.2,10.63
			c-1.49,3.76-2.96,7.49-4.15,10.51c-1.21,3-2.11,5.3-2.5,6.21c0.23,0.86,0.77,3.02,1.47,5.82c0.7,2.85,1.6,6.38,2.48,9.89
			c0.91,3.58,1.79,7.13,2.53,10.04c0.74,2.96,1.3,5.2,1.51,6.09c0.62-0.01,2.15-0.06,4.17-0.13c2.04-0.06,4.55-0.13,7.11-0.23
			C23.15,209.27,25.76,209.2,27.93,209.12"/>
		<path class="st1" d="M21.38,286.73c2.16,0.25,3.84,0.47,4.48,0.55c0.43-0.91,1.47-3.2,2.83-6.24c1.39-3.03,3.1-6.78,4.79-10.55
			c1.73-3.82,3.46-7.64,4.85-10.74c1.41-3.12,2.52-5.55,2.95-6.46c-0.27-1-0.96-3.5-1.84-6.74c-0.9-3.22-1.95-7.17-3.03-11.14
			c-1.05-3.91-2.12-7.79-2.98-10.95c-0.84-3.14-1.49-5.53-1.75-6.45c-0.65-0.01-2.33,0.04-4.49,0.05c-2.15,0.05-4.78,0.08-7.38,0.11
			c-2.56,0.03-5.09,0.08-7.12,0.08c-2.02,0.03-3.53,0.05-4.15,0.06c-0.37,0.89-1.32,3.2-2.58,6.16c-1.22,2.95-2.73,6.58-4.24,10.21
			c-1.52,3.59-3.01,7.19-4.22,10.08c-1.21,2.85-2.13,5.06-2.48,5.92c0.19,0.9,0.71,3.2,1.39,6.19c0.7,3.01,1.57,6.75,2.44,10.48
			c0.87,3.73,1.77,7.53,2.46,10.61c0.72,3.09,1.29,5.49,1.5,6.42c0.59,0.08,2.14,0.28,4.14,0.54c2.02,0.23,4.55,0.56,7.09,0.87
			C16.63,286.14,19.24,286.45,21.38,286.73"/>
		<path class="st1" d="M86.76,80.64c0.49-1.1,1.66-3.94,3.2-7.66c1.54-3.72,3.43-8.35,5.33-13c1.91-4.65,3.84-9.35,5.4-13.14
			c1.56-3.86,2.77-6.79,3.22-7.96c-0.36-0.88-1.32-3.11-2.58-5.98c-1.24-2.9-2.79-6.39-4.3-9.87c-1.51-3.48-3.04-6.88-4.27-9.65
			c-1.22-2.77-2.16-4.87-2.52-5.7c-0.82,0.33-2.82,1.14-5.42,2.18c-2.6,1.04-5.76,2.29-8.85,3.54c-3.08,1.23-6.12,2.41-8.55,3.38
			c-2.41,0.94-4.25,1.68-4.96,1.98c-0.39,1.06-1.4,3.79-2.7,7.34c-1.3,3.55-2.9,7.88-4.53,12.2c-1.62,4.32-3.21,8.58-4.5,12.06
			c-1.3,3.44-2.3,6.09-2.69,7.11c0.29,0.82,1.02,2.89,1.99,5.58c0.97,2.74,2.18,6.11,3.37,9.51c1.2,3.44,2.4,6.88,3.4,9.68
			c0.99,2.83,1.74,5.02,2.06,5.86c0.71-0.18,2.56-0.68,4.98-1.31c2.44-0.66,5.49-1.48,8.57-2.29c3.14-0.84,6.3-1.7,8.91-2.39
			C83.94,81.41,85.97,80.88,86.76,80.64"/>
		<path class="st2" d="M66.78,166.47c3.13-0.34,6.28-0.72,8.88-1.02c2.6-0.31,4.66-0.55,5.45-0.63c0.47-1.08,1.71-3.8,3.3-7.37
			c1.6-3.6,3.59-8.04,5.54-12.49c2.02-4.49,4.03-9.02,5.65-12.69c1.63-3.69,2.89-6.54,3.4-7.67c-0.35-0.95-1.26-3.41-2.43-6.56
			c-1.17-3.15-2.6-7.02-4.04-10.87c-1.41-3.78-2.84-7.59-3.98-10.63c-1.16-3.02-2.01-5.34-2.36-6.24c-0.79,0.2-2.83,0.72-5.44,1.36
			c-2.61,0.64-5.78,1.46-8.91,2.23c-3.08,0.76-6.14,1.54-8.59,2.16c-2.42,0.59-4.26,1.06-4.99,1.22c-0.41,1.05-1.48,3.69-2.86,7.14
			c-1.38,3.45-3.09,7.67-4.81,11.84c-1.67,4.17-3.39,8.34-4.74,11.7c-1.36,3.31-2.42,5.89-2.81,6.91c0.27,0.85,0.97,3.12,1.88,6.05
			c0.9,2.95,2.02,6.61,3.14,10.3c1.15,3.71,2.31,7.43,3.22,10.47c0.94,3.06,1.67,5.43,1.93,6.35c0.75-0.08,2.58-0.28,4.99-0.58
			C60.66,167.18,63.69,166.81,66.78,166.47"/>
		<path class="st2" d="M69.05,249.77c2.62,0.09,4.64,0.17,5.42,0.2c0.51-1.02,1.72-3.6,3.33-7c1.62-3.4,3.61-7.6,5.63-11.86
			c2.01-4.27,4.04-8.56,5.73-12.06c1.66-3.52,2.94-6.24,3.44-7.3c-0.32-1.04-1.21-3.68-2.34-7.11c-1.1-3.41-2.49-7.6-3.84-11.72
			c-1.38-4.15-2.72-8.23-3.81-11.55c-1.08-3.28-1.91-5.8-2.24-6.77c-0.79,0.08-2.81,0.28-5.42,0.54c-2.61,0.26-5.79,0.57-8.88,0.86
			c-3.1,0.3-6.12,0.6-8.58,0.82c-2.41,0.25-4.26,0.42-4.96,0.48c-0.44,1.03-1.54,3.57-2.97,6.87c-1.43,3.3-3.16,7.35-4.92,11.37
			c-1.74,4-3.48,8-4.89,11.21c-1.36,3.2-2.43,5.65-2.86,6.61c0.26,0.96,0.91,3.35,1.8,6.48c0.89,3.18,1.96,7.1,3.06,11.05
			c1.1,3.94,2.21,7.93,3.11,11.2c0.9,3.26,1.62,5.78,1.89,6.78c0.71,0.02,2.55,0.08,4.96,0.21c2.44,0.08,5.45,0.22,8.51,0.33
			C63.33,249.55,66.47,249.67,69.05,249.77"/>
		<path class="st1" d="M62.4,334.26c2.6,0.49,4.6,0.91,5.41,1.07c0.47-0.96,1.68-3.39,3.29-6.56c1.58-3.2,3.56-7.14,5.55-11.12
			c2.03-4.02,4.03-8.06,5.66-11.33c1.67-3.32,2.94-5.86,3.45-6.84c-0.34-1.13-1.21-3.95-2.31-7.58c-1.14-3.63-2.48-8.09-3.83-12.53
			c-1.35-4.39-2.68-8.77-3.73-12.3c-1.06-3.53-1.89-6.2-2.19-7.27c-0.78-0.03-2.81-0.15-5.44-0.29c-2.54-0.15-5.71-0.33-8.81-0.5
			c-3.06-0.18-6.07-0.36-8.5-0.51c-2.43-0.14-4.25-0.23-4.97-0.29c-0.42,0.96-1.53,3.39-2.99,6.52c-1.43,3.15-3.18,6.99-4.95,10.82
			c-1.73,3.77-3.47,7.55-4.87,10.6c-1.4,3.06-2.46,5.37-2.85,6.27c0.25,0.98,0.9,3.53,1.78,6.89c0.86,3.32,1.96,7.48,3.05,11.65
			c1.09,4.16,2.22,8.4,3.12,11.81c0.93,3.44,1.62,6.09,1.9,7.14c0.71,0.13,2.56,0.5,4.95,0.97c2.42,0.48,5.43,1.09,8.51,1.66
			C56.7,333.17,59.83,333.78,62.4,334.26"/>
		<path class="st1" d="M98.81,6.32c1.29,2.78,2.84,6.2,4.4,9.67c1.58,3.49,3.17,7.02,4.46,9.86c1.29,2.89,2.29,5.11,2.68,6.01
			c0.88-0.32,3.12-1.08,6.05-2.11c3-1.02,6.69-2.3,10.47-3.6c3.8-1.32,7.68-2.66,10.87-3.77c3.23-1.12,5.72-1.97,6.71-2.33
			c0.53-1.26,1.89-4.47,3.68-8.7c1.79-4.23,4.01-9.46,6.22-14.7c2.22-5.3,4.44-10.65,6.27-14.97c1.8-4.34,3.2-7.71,3.75-9
			c-0.5-0.9-1.8-3.15-3.44-6.07c-1.67-2.9-3.68-6.43-5.72-9.93c-2.01-3.49-4.02-6.91-5.65-9.7c-1.6-2.77-2.83-4.85-3.34-5.68
			c-0.95,0.46-3.41,1.64-6.62,3.16c-3.15,1.49-6.97,3.32-10.76,5.11c-3.73,1.76-7.41,3.51-10.33,4.89c-2.92,1.38-5.13,2.43-6,2.83
			c-0.45,1.21-1.57,4.24-3.05,8.24c-1.46,3.93-3.29,8.79-5.1,13.62c-1.79,4.81-3.62,9.63-5.08,13.49c-1.48,3.85-2.58,6.81-3.04,7.97
			C96.6,1.45,97.58,3.55,98.81,6.32"/>
		<path class="st1" d="M139.65,111.65c0.56-1.2,2-4.31,3.9-8.35c1.91-4.07,4.23-9.15,6.59-14.2c2.36-5.12,4.75-10.27,6.66-14.46
			c1.95-4.23,3.46-7.48,4.03-8.75c-0.47-0.99-1.64-3.52-3.18-6.8c-1.55-3.27-3.43-7.25-5.29-11.2c-1.88-3.93-3.75-7.82-5.25-10.94
			c-1.46-3.13-2.62-5.5-3.06-6.43c-1,0.31-3.49,1.16-6.71,2.21c-3.19,1.07-7.06,2.34-10.9,3.6c-3.77,1.23-7.49,2.45-10.47,3.44
			c-2.92,0.96-5.19,1.7-6.03,1.97c-0.5,1.17-1.74,4.15-3.32,8.04c-1.61,3.87-3.57,8.59-5.53,13.32c-1.97,4.68-3.91,9.34-5.49,13.11
			c-1.56,3.75-2.77,6.63-3.23,7.76c0.35,0.9,1.25,3.21,2.43,6.25c1.16,3.06,2.64,6.86,4.1,10.68c1.47,3.86,2.96,7.75,4.17,10.89
			c1.18,3.2,2.13,5.65,2.48,6.6c0.89-0.17,3.11-0.59,6.07-1.18c2.96-0.58,6.7-1.29,10.47-2.06c3.8-0.75,7.69-1.5,10.88-2.15
			C136.18,112.37,138.66,111.86,139.65,111.65"/>
		<path class="st2" d="M139.81,236.66c-1.69-4.72-3.39-9.37-4.73-13.14c-1.36-3.75-2.41-6.59-2.79-7.7
			c-0.98,0.02-3.48,0.09-6.65,0.17c-3.17,0.09-7.01,0.19-10.83,0.27c-3.73,0.11-7.43,0.19-10.41,0.27
			c-2.93,0.07-5.15,0.11-6.01,0.14c-0.52,1.09-1.84,3.81-3.52,7.36c-1.71,3.52-3.77,7.86-5.84,12.16
			c-2.05,4.27-4.09,8.52-5.72,11.95c-1.66,3.41-2.89,6.01-3.39,7.03c0.3,1.07,1.16,3.76,2.24,7.3c1.11,3.57,2.48,7.98,3.84,12.42
			c1.39,4.45,2.79,8.93,3.94,12.6c1.14,3.67,2.02,6.49,2.38,7.64c0.86,0.08,3.06,0.33,5.97,0.67c2.97,0.35,6.64,0.74,10.36,1.17
			c3.77,0.42,7.6,0.85,10.75,1.22c3.17,0.34,5.62,0.61,6.6,0.74c0.56-1.09,2.01-3.84,3.93-7.45c1.94-3.63,4.33-8.11,6.73-12.64
			c2.41-4.55,4.84-9.13,6.82-12.88c2-3.78,3.57-6.68,4.16-7.82c-0.41-1.18-1.54-4.18-2.95-8.08
			C143.27,246.15,141.54,241.37,139.81,236.66"/>
		<path class="st1" d="M210.8,58.32c-1.24,0.33-4.36,1.14-8.43,2.2c-3.98,1.04-8.81,2.3-13.58,3.54c-4.72,1.23-9.35,2.41-13.04,3.38
			c-3.68,0.95-6.46,1.66-7.55,1.95c-0.57,1.27-2.12,4.57-4.11,8.81c-1.97,4.26-4.43,9.47-6.83,14.64
			c-2.41,5.13-4.82,10.22-6.79,14.37c-1.93,4.1-3.38,7.22-3.97,8.46c0.43,1.04,1.53,3.67,2.97,7.14c1.47,3.48,3.26,7.81,5.1,12.17
			c1.81,4.39,3.64,8.82,5.14,12.43c1.51,3.63,2.68,6.43,3.14,7.54c1.05-0.12,3.83-0.46,7.47-0.93c3.69-0.44,8.3-1.02,12.95-1.61
			c4.76-0.59,9.57-1.18,13.53-1.66c4.02-0.51,7.11-0.92,8.34-1.07c0.72-1.32,2.49-4.72,4.85-9.2c2.38-4.46,5.3-10.03,8.26-15.6
			c2.97-5.64,5.96-11.31,8.4-15.96c2.46-4.67,4.33-8.27,5.09-9.68c-0.59-1.15-2.06-4.1-4.01-7.89c-1.9-3.79-4.24-8.41-6.58-12.98
			c-2.33-4.53-4.64-9.04-6.53-12.63C212.77,62.12,211.35,59.41,210.8,58.32"/>
	</g>
	<path class="st3" d="M-99.93,246.92"/>
	<text transform="matrix(1 0 0 1 25.1999 178.9617)" class="st4 st5 st6">Strategico Consultants</text>
	<line class="st7" x1="24.6" y1="181.11" x2="206.53" y2="181.11"/>
	<text transform="matrix(1 0 0 1 195.5476 178.5969)" class="st4 st5 st8">LLC</text>
	<g>
		<g>
			<path class="st9" d="M85.99,185.57c0.2,0,0.37,0.04,0.51,0.11c0.14,0.07,0.26,0.17,0.34,0.3s0.12,0.28,0.12,0.46
				c0,0.18-0.04,0.33-0.12,0.46s-0.19,0.23-0.34,0.3c-0.14,0.07-0.31,0.1-0.51,0.1h-0.62v1.03h-0.45v-2.76H85.99z M85.92,186.91
				c0.2,0,0.34-0.04,0.44-0.12c0.09-0.08,0.14-0.2,0.14-0.36c0-0.16-0.05-0.28-0.14-0.36c-0.09-0.08-0.24-0.12-0.44-0.12h-0.54v0.97
				H85.92z"/>
			<path class="st9" d="M88.54,188.37c-0.21,0-0.39-0.04-0.55-0.13s-0.28-0.21-0.37-0.38s-0.13-0.36-0.13-0.58
				c0-0.23,0.04-0.42,0.13-0.58s0.21-0.29,0.37-0.38c0.16-0.09,0.33-0.13,0.53-0.13c0.2,0,0.38,0.04,0.52,0.12
				c0.14,0.08,0.25,0.2,0.33,0.34c0.08,0.14,0.11,0.31,0.11,0.49c0,0.05,0,0.1,0,0.14c0,0.04-0.01,0.08-0.01,0.12h-1.68v-0.34h1.49
				l-0.22,0.07c0-0.19-0.05-0.33-0.14-0.44c-0.1-0.1-0.22-0.15-0.39-0.15c-0.12,0-0.22,0.03-0.31,0.08s-0.16,0.14-0.21,0.25
				s-0.07,0.25-0.07,0.4c0,0.16,0.03,0.29,0.08,0.4c0.05,0.11,0.12,0.19,0.21,0.25s0.2,0.08,0.33,0.08c0.14,0,0.25-0.03,0.34-0.08
				c0.09-0.05,0.16-0.13,0.21-0.22l0.36,0.17c-0.05,0.1-0.12,0.19-0.2,0.26c-0.09,0.07-0.19,0.13-0.3,0.17
				S88.68,188.37,88.54,188.37z"/>
			<path class="st9" d="M90.16,188.33v-2.09h0.38l0.04,0.38c0.06-0.14,0.14-0.24,0.25-0.31s0.25-0.11,0.41-0.11
				c0.04,0,0.08,0,0.13,0.01s0.08,0.02,0.1,0.03l-0.06,0.39c-0.03-0.01-0.06-0.02-0.1-0.03c-0.04-0.01-0.09-0.01-0.15-0.01
				c-0.09,0-0.17,0.02-0.26,0.07c-0.08,0.05-0.15,0.11-0.21,0.21c-0.05,0.09-0.08,0.21-0.08,0.35v1.11H90.16z"/>
			<path class="st9" d="M92.82,188.37c-0.21,0-0.4-0.04-0.57-0.12c-0.17-0.08-0.31-0.2-0.41-0.34l0.31-0.27
				c0.06,0.11,0.15,0.21,0.27,0.27s0.25,0.1,0.42,0.1c0.13,0,0.23-0.02,0.31-0.07s0.11-0.11,0.11-0.19c0-0.05-0.02-0.1-0.05-0.14
				c-0.03-0.04-0.1-0.07-0.2-0.09l-0.44-0.09c-0.22-0.04-0.38-0.12-0.48-0.22c-0.09-0.1-0.14-0.23-0.14-0.38
				c0-0.11,0.03-0.22,0.1-0.32c0.07-0.1,0.17-0.18,0.3-0.24c0.13-0.06,0.29-0.09,0.47-0.09c0.21,0,0.39,0.04,0.54,0.11
				s0.26,0.18,0.34,0.32l-0.31,0.26c-0.05-0.11-0.13-0.2-0.23-0.25c-0.1-0.05-0.21-0.08-0.32-0.08c-0.09,0-0.17,0.01-0.23,0.03
				c-0.06,0.02-0.11,0.05-0.15,0.09c-0.03,0.04-0.05,0.08-0.05,0.14c0,0.06,0.02,0.1,0.06,0.15s0.12,0.07,0.23,0.1l0.48,0.1
				c0.2,0.04,0.34,0.1,0.42,0.2c0.08,0.09,0.12,0.21,0.12,0.34c0,0.13-0.04,0.25-0.1,0.35c-0.07,0.1-0.17,0.18-0.3,0.24
				S93,188.37,92.82,188.37z"/>
			<path class="st9" d="M95.27,186.19c0.2,0,0.38,0.04,0.54,0.13c0.16,0.09,0.28,0.21,0.37,0.38s0.13,0.36,0.13,0.58
				c0,0.23-0.04,0.42-0.13,0.58s-0.21,0.29-0.37,0.38c-0.16,0.09-0.34,0.13-0.54,0.13c-0.2,0-0.38-0.04-0.54-0.13
				s-0.28-0.21-0.37-0.38s-0.13-0.36-0.13-0.58c0-0.23,0.04-0.42,0.13-0.58s0.21-0.29,0.37-0.38
				C94.89,186.24,95.07,186.19,95.27,186.19z M95.27,186.55c-0.13,0-0.23,0.03-0.32,0.09c-0.09,0.06-0.16,0.14-0.2,0.25
				c-0.05,0.11-0.07,0.24-0.07,0.4c0,0.16,0.02,0.29,0.07,0.4c0.05,0.11,0.11,0.19,0.2,0.25c0.09,0.06,0.19,0.09,0.32,0.09
				c0.13,0,0.23-0.03,0.32-0.09c0.09-0.06,0.15-0.14,0.2-0.25c0.05-0.11,0.07-0.24,0.07-0.4c0-0.16-0.02-0.29-0.07-0.4
				c-0.05-0.11-0.11-0.19-0.2-0.25C95.5,186.57,95.4,186.55,95.27,186.55z"/>
			<path class="st9" d="M97,188.33v-2.09h0.4l0.03,0.54l-0.06-0.06c0.04-0.12,0.1-0.22,0.17-0.3c0.07-0.08,0.16-0.14,0.26-0.17
				c0.1-0.04,0.21-0.05,0.32-0.05c0.15,0,0.28,0.03,0.4,0.08c0.12,0.06,0.21,0.14,0.28,0.26s0.1,0.26,0.1,0.44v1.36h-0.45v-1.22
				c0-0.21-0.04-0.35-0.13-0.43c-0.08-0.08-0.19-0.12-0.32-0.12c-0.09,0-0.18,0.02-0.27,0.06c-0.09,0.04-0.16,0.11-0.22,0.21
				c-0.06,0.1-0.09,0.22-0.09,0.38v1.11H97z"/>
			<path class="st9" d="M100.93,186.99c0-0.14-0.04-0.25-0.12-0.32c-0.08-0.08-0.18-0.12-0.32-0.12c-0.13,0-0.23,0.03-0.32,0.09
				s-0.15,0.15-0.2,0.28l-0.38-0.16c0.05-0.17,0.16-0.31,0.31-0.41c0.16-0.1,0.36-0.15,0.6-0.15c0.17,0,0.32,0.03,0.44,0.08
				s0.23,0.14,0.3,0.25c0.07,0.11,0.11,0.25,0.11,0.42v0.93c0,0.1,0.05,0.15,0.15,0.15c0.05,0,0.1-0.01,0.15-0.02l-0.02,0.31
				c-0.06,0.03-0.15,0.05-0.24,0.05c-0.09,0-0.17-0.02-0.24-0.05s-0.13-0.08-0.17-0.15s-0.06-0.15-0.06-0.25v-0.03l0.09,0
				c-0.02,0.11-0.08,0.2-0.15,0.27s-0.17,0.12-0.27,0.16c-0.1,0.04-0.21,0.05-0.31,0.05c-0.13,0-0.25-0.02-0.35-0.06
				c-0.1-0.04-0.19-0.11-0.25-0.19c-0.06-0.08-0.09-0.19-0.09-0.32c0-0.16,0.05-0.29,0.15-0.39s0.25-0.17,0.43-0.21l0.81-0.16
				l0,0.31l-0.59,0.12c-0.12,0.02-0.21,0.05-0.26,0.1s-0.09,0.1-0.09,0.18c0,0.08,0.03,0.14,0.09,0.19s0.14,0.07,0.24,0.07
				c0.07,0,0.14-0.01,0.2-0.03c0.07-0.02,0.12-0.04,0.18-0.08c0.05-0.04,0.09-0.09,0.12-0.15c0.03-0.06,0.04-0.13,0.04-0.22V186.99z
				"/>
			<path class="st9" d="M102.66,185.29v2.45c0,0.1,0.02,0.17,0.05,0.21s0.1,0.06,0.18,0.06c0.05,0,0.09,0,0.13-0.01
				c0.04-0.01,0.08-0.02,0.13-0.04l-0.05,0.33c-0.05,0.02-0.1,0.04-0.16,0.05c-0.06,0.01-0.12,0.02-0.18,0.02
				c-0.19,0-0.32-0.05-0.41-0.14s-0.13-0.25-0.13-0.45v-2.49H102.66z"/>
			<path class="st9" d="M103.89,185.88c-0.1,0-0.17-0.02-0.22-0.07s-0.08-0.12-0.08-0.21c0-0.09,0.03-0.16,0.08-0.21
				s0.13-0.07,0.22-0.07c0.09,0,0.17,0.02,0.22,0.07s0.08,0.12,0.08,0.21c0,0.09-0.03,0.16-0.08,0.21S103.98,185.88,103.89,185.88z
				 M104.11,186.24v2.09h-0.45v-2.09H104.11z"/>
			<path class="st9" d="M104.8,188.33v-0.31l1.01-1.18l0.26-0.26l-0.36,0.01h-0.9v-0.35h1.75v0.31l-1.01,1.18l-0.25,0.26l0.4-0.01
				h0.9v0.35H104.8z"/>
			<path class="st9" d="M108.19,188.37c-0.21,0-0.39-0.04-0.55-0.13s-0.28-0.21-0.37-0.38s-0.13-0.36-0.13-0.58
				c0-0.23,0.04-0.42,0.13-0.58s0.21-0.29,0.37-0.38c0.16-0.09,0.33-0.13,0.53-0.13c0.2,0,0.38,0.04,0.52,0.12
				c0.14,0.08,0.25,0.2,0.33,0.34c0.08,0.14,0.11,0.31,0.11,0.49c0,0.05,0,0.1,0,0.14c0,0.04-0.01,0.08-0.01,0.12h-1.68v-0.34h1.49
				l-0.22,0.07c0-0.19-0.05-0.33-0.14-0.44c-0.1-0.1-0.22-0.15-0.39-0.15c-0.12,0-0.22,0.03-0.31,0.08s-0.16,0.14-0.21,0.25
				s-0.07,0.25-0.07,0.4c0,0.16,0.03,0.29,0.08,0.4c0.05,0.11,0.12,0.19,0.21,0.25s0.2,0.08,0.33,0.08c0.14,0,0.25-0.03,0.34-0.08
				c0.09-0.05,0.16-0.13,0.21-0.22l0.36,0.17c-0.05,0.1-0.12,0.19-0.2,0.26c-0.09,0.07-0.19,0.13-0.3,0.17
				S108.33,188.37,108.19,188.37z"/>
			<path class="st9" d="M110.62,188.37c-0.17,0-0.33-0.04-0.47-0.13c-0.14-0.09-0.25-0.21-0.33-0.37c-0.08-0.16-0.12-0.36-0.12-0.58
				c0-0.23,0.04-0.43,0.13-0.59c0.09-0.16,0.2-0.29,0.35-0.37c0.15-0.08,0.3-0.13,0.48-0.13c0.18,0,0.33,0.05,0.45,0.15
				s0.21,0.22,0.25,0.38l-0.05,0.05v-1.47h0.45v3.04h-0.4l-0.03-0.57l0.06,0c-0.02,0.13-0.07,0.23-0.14,0.32
				c-0.07,0.09-0.16,0.16-0.27,0.21S110.75,188.37,110.62,188.37z M110.72,188.01c0.12,0,0.22-0.03,0.31-0.09
				c0.09-0.06,0.15-0.15,0.2-0.26s0.07-0.25,0.07-0.4c0-0.14-0.02-0.27-0.07-0.37s-0.11-0.19-0.2-0.24s-0.18-0.08-0.3-0.08
				c-0.19,0-0.33,0.06-0.44,0.19c-0.1,0.13-0.16,0.31-0.16,0.53c0,0.23,0.05,0.4,0.15,0.53S110.54,188.01,110.72,188.01z"/>
			<path class="st9" d="M116.17,185.57v0.39h-0.95v2.38h-0.45v-2.38h-0.95v-0.39H116.17z"/>
			<path class="st9" d="M117.69,188.37c-0.21,0-0.39-0.04-0.55-0.13s-0.28-0.21-0.37-0.38s-0.13-0.36-0.13-0.58
				c0-0.23,0.04-0.42,0.13-0.58s0.21-0.29,0.37-0.38c0.16-0.09,0.33-0.13,0.53-0.13c0.2,0,0.38,0.04,0.52,0.12
				c0.14,0.08,0.25,0.2,0.33,0.34c0.08,0.14,0.11,0.31,0.11,0.49c0,0.05,0,0.1,0,0.14c0,0.04-0.01,0.08-0.01,0.12h-1.68v-0.34h1.49
				l-0.22,0.07c0-0.19-0.05-0.33-0.14-0.44c-0.1-0.1-0.22-0.15-0.39-0.15c-0.12,0-0.22,0.03-0.31,0.08s-0.16,0.14-0.21,0.25
				s-0.07,0.25-0.07,0.4c0,0.16,0.03,0.29,0.08,0.4c0.05,0.11,0.12,0.19,0.21,0.25s0.2,0.08,0.33,0.08c0.14,0,0.25-0.03,0.34-0.08
				c0.09-0.05,0.16-0.13,0.21-0.22l0.36,0.17c-0.05,0.1-0.12,0.19-0.2,0.26c-0.09,0.07-0.19,0.13-0.3,0.17
				S117.83,188.37,117.69,188.37z"/>
			<path class="st9" d="M120.22,186.19c0.17,0,0.31,0.02,0.43,0.07s0.22,0.12,0.3,0.21c0.08,0.09,0.14,0.19,0.18,0.31l-0.42,0.17
				c-0.04-0.13-0.09-0.23-0.17-0.29s-0.18-0.1-0.31-0.1c-0.13,0-0.23,0.03-0.32,0.09c-0.09,0.06-0.16,0.14-0.2,0.25
				c-0.05,0.11-0.07,0.24-0.07,0.4c0,0.16,0.02,0.29,0.07,0.4c0.05,0.11,0.12,0.19,0.21,0.25s0.2,0.08,0.32,0.08
				c0.1,0,0.18-0.02,0.25-0.05s0.13-0.08,0.17-0.14c0.05-0.06,0.08-0.13,0.09-0.22l0.41,0.14c-0.04,0.13-0.1,0.24-0.18,0.33
				c-0.08,0.09-0.19,0.17-0.31,0.22c-0.12,0.05-0.26,0.08-0.42,0.08c-0.21,0-0.39-0.04-0.55-0.13s-0.28-0.21-0.37-0.38
				s-0.13-0.36-0.13-0.58c0-0.23,0.04-0.42,0.13-0.58s0.21-0.29,0.37-0.38C119.84,186.24,120.02,186.19,120.22,186.19z"/>
			<path class="st9" d="M121.8,188.33v-3.04h0.45v1.28c0.07-0.13,0.16-0.23,0.28-0.29c0.12-0.06,0.25-0.09,0.4-0.09
				c0.15,0,0.28,0.03,0.4,0.08c0.12,0.06,0.21,0.14,0.28,0.26s0.1,0.26,0.1,0.44v1.36h-0.45v-1.21c0-0.21-0.04-0.35-0.13-0.43
				c-0.08-0.08-0.19-0.12-0.32-0.12c-0.09,0-0.18,0.02-0.27,0.06c-0.09,0.04-0.16,0.11-0.22,0.21c-0.06,0.1-0.09,0.22-0.09,0.39
				v1.11H121.8z"/>
			<path class="st9" d="M124.51,188.33v-2.09h0.4l0.03,0.54l-0.06-0.06c0.04-0.12,0.1-0.22,0.17-0.3c0.07-0.08,0.16-0.14,0.26-0.17
				c0.1-0.04,0.21-0.05,0.32-0.05c0.15,0,0.28,0.03,0.4,0.08c0.12,0.06,0.21,0.14,0.28,0.26s0.1,0.26,0.1,0.44v1.36h-0.45v-1.22
				c0-0.21-0.04-0.35-0.13-0.43c-0.08-0.08-0.19-0.12-0.32-0.12c-0.09,0-0.18,0.02-0.27,0.06c-0.09,0.04-0.16,0.11-0.22,0.21
				c-0.06,0.1-0.09,0.22-0.09,0.38v1.11H124.51z"/>
			<path class="st9" d="M128.14,186.19c0.2,0,0.38,0.04,0.54,0.13c0.16,0.09,0.28,0.21,0.37,0.38s0.13,0.36,0.13,0.58
				c0,0.23-0.04,0.42-0.13,0.58s-0.21,0.29-0.37,0.38c-0.16,0.09-0.34,0.13-0.54,0.13c-0.2,0-0.38-0.04-0.54-0.13
				s-0.28-0.21-0.37-0.38s-0.13-0.36-0.13-0.58c0-0.23,0.04-0.42,0.13-0.58s0.21-0.29,0.37-0.38
				C127.76,186.24,127.94,186.19,128.14,186.19z M128.14,186.55c-0.13,0-0.23,0.03-0.32,0.09c-0.09,0.06-0.16,0.14-0.2,0.25
				c-0.05,0.11-0.07,0.24-0.07,0.4c0,0.16,0.02,0.29,0.07,0.4c0.05,0.11,0.11,0.19,0.2,0.25c0.09,0.06,0.19,0.09,0.32,0.09
				c0.13,0,0.23-0.03,0.32-0.09c0.09-0.06,0.15-0.14,0.2-0.25c0.05-0.11,0.07-0.24,0.07-0.4c0-0.16-0.02-0.29-0.07-0.4
				c-0.05-0.11-0.11-0.19-0.2-0.25C128.37,186.57,128.27,186.55,128.14,186.55z"/>
			<path class="st9" d="M130.3,185.29v2.45c0,0.1,0.02,0.17,0.05,0.21s0.1,0.06,0.18,0.06c0.05,0,0.09,0,0.13-0.01
				c0.04-0.01,0.08-0.02,0.13-0.04l-0.05,0.33c-0.05,0.02-0.1,0.04-0.16,0.05c-0.06,0.01-0.12,0.02-0.18,0.02
				c-0.19,0-0.32-0.05-0.41-0.14s-0.13-0.25-0.13-0.45v-2.49H130.3z"/>
			<path class="st9" d="M132.21,186.19c0.2,0,0.38,0.04,0.54,0.13c0.16,0.09,0.28,0.21,0.37,0.38s0.13,0.36,0.13,0.58
				c0,0.23-0.04,0.42-0.13,0.58s-0.21,0.29-0.37,0.38c-0.16,0.09-0.34,0.13-0.54,0.13c-0.2,0-0.38-0.04-0.54-0.13
				s-0.28-0.21-0.37-0.38s-0.13-0.36-0.13-0.58c0-0.23,0.04-0.42,0.13-0.58s0.21-0.29,0.37-0.38
				C131.83,186.24,132.01,186.19,132.21,186.19z M132.21,186.55c-0.13,0-0.23,0.03-0.32,0.09c-0.09,0.06-0.16,0.14-0.2,0.25
				c-0.05,0.11-0.07,0.24-0.07,0.4c0,0.16,0.02,0.29,0.07,0.4c0.05,0.11,0.11,0.19,0.2,0.25c0.09,0.06,0.19,0.09,0.32,0.09
				c0.13,0,0.23-0.03,0.32-0.09c0.09-0.06,0.15-0.14,0.2-0.25c0.05-0.11,0.07-0.24,0.07-0.4c0-0.16-0.02-0.29-0.07-0.4
				c-0.05-0.11-0.11-0.19-0.2-0.25C132.44,186.57,132.34,186.55,132.21,186.55z"/>
			<path class="st9" d="M135.12,188c0.21,0,0.38,0.05,0.49,0.14c0.12,0.09,0.18,0.22,0.18,0.39c0,0.14-0.05,0.27-0.14,0.37
				c-0.09,0.11-0.22,0.19-0.38,0.24s-0.34,0.08-0.54,0.08c-0.34,0-0.6-0.05-0.76-0.16c-0.16-0.11-0.25-0.24-0.25-0.4
				c0-0.11,0.04-0.21,0.12-0.29c0.08-0.08,0.21-0.13,0.4-0.14l-0.02,0.07c-0.12-0.02-0.21-0.07-0.28-0.14s-0.11-0.16-0.11-0.28
				s0.05-0.22,0.14-0.31c0.09-0.08,0.22-0.13,0.39-0.15l0.23,0.11h-0.05c-0.13,0.01-0.22,0.04-0.27,0.09
				c-0.05,0.05-0.08,0.1-0.08,0.16c0,0.07,0.03,0.12,0.08,0.15c0.05,0.03,0.12,0.05,0.22,0.05H135.12z M134.72,186.19
				c0.18,0,0.34,0.03,0.48,0.09c0.14,0.06,0.24,0.14,0.31,0.25c0.07,0.11,0.11,0.23,0.11,0.37s-0.04,0.27-0.11,0.37
				c-0.07,0.11-0.18,0.19-0.31,0.25c-0.14,0.06-0.29,0.09-0.48,0.09c-0.29,0-0.51-0.07-0.67-0.2s-0.23-0.3-0.23-0.51
				c0-0.14,0.04-0.27,0.11-0.37c0.08-0.11,0.18-0.19,0.32-0.25S134.54,186.19,134.72,186.19z M134.73,188.89
				c0.15,0,0.28-0.01,0.38-0.04s0.17-0.07,0.22-0.11s0.07-0.1,0.07-0.15c0-0.06-0.03-0.12-0.08-0.16c-0.05-0.04-0.14-0.06-0.28-0.06
				h-0.67c-0.08,0-0.14,0.02-0.2,0.06s-0.08,0.1-0.08,0.17c0,0.09,0.06,0.17,0.17,0.22C134.38,188.87,134.54,188.89,134.73,188.89z
				 M134.72,186.51c-0.13,0-0.24,0.04-0.32,0.11c-0.09,0.07-0.13,0.17-0.13,0.29s0.04,0.22,0.13,0.29c0.08,0.07,0.19,0.11,0.32,0.11
				c0.13,0,0.24-0.04,0.32-0.11s0.13-0.17,0.13-0.29s-0.04-0.22-0.13-0.29S134.85,186.51,134.72,186.51z M135.78,185.8l0.07,0.35
				c-0.01,0-0.02,0-0.02,0c-0.01,0-0.02,0-0.03,0c-0.13,0-0.24,0.03-0.31,0.09s-0.1,0.14-0.1,0.25l-0.22-0.1
				c0-0.11,0.02-0.21,0.07-0.3s0.12-0.16,0.2-0.21c0.09-0.05,0.19-0.08,0.3-0.08c0.01,0,0.01,0,0.02,0
				C135.77,185.8,135.78,185.8,135.78,185.8z"/>
			<path class="st9" d="M138.16,186.24l-0.92,2.34c-0.06,0.16-0.13,0.29-0.2,0.38c-0.07,0.1-0.15,0.16-0.25,0.21
				c-0.09,0.04-0.2,0.06-0.32,0.06c-0.1,0-0.19-0.01-0.28-0.04c-0.09-0.03-0.16-0.06-0.22-0.11l0.11-0.35
				c0.05,0.04,0.11,0.08,0.17,0.1s0.12,0.03,0.19,0.03c0.08,0,0.14-0.02,0.2-0.06c0.06-0.04,0.11-0.12,0.16-0.24l0.09-0.23
				l-0.22-0.52l-0.65-1.59h0.5l0.46,1.32l0.12,0.39l0.14-0.43l0.44-1.28H138.16z"/>
			<path class="st9" d="M141.16,185.52c0.25,0,0.46,0.05,0.64,0.14s0.33,0.23,0.46,0.41l-0.3,0.29c-0.11-0.16-0.23-0.28-0.36-0.35
				c-0.13-0.07-0.29-0.11-0.47-0.11c-0.13,0-0.24,0.02-0.33,0.05c-0.09,0.04-0.15,0.08-0.19,0.14c-0.04,0.06-0.06,0.13-0.06,0.2
				c0,0.09,0.03,0.16,0.09,0.23c0.06,0.06,0.17,0.11,0.34,0.15l0.56,0.13c0.27,0.06,0.46,0.15,0.57,0.27
				c0.11,0.12,0.17,0.27,0.17,0.46c0,0.17-0.05,0.32-0.14,0.44c-0.09,0.13-0.22,0.22-0.38,0.29c-0.16,0.07-0.35,0.1-0.58,0.1
				c-0.2,0-0.37-0.03-0.53-0.08c-0.16-0.05-0.29-0.12-0.41-0.21c-0.12-0.09-0.21-0.19-0.29-0.3l0.31-0.31
				c0.06,0.1,0.13,0.18,0.22,0.26s0.19,0.14,0.31,0.18s0.25,0.06,0.4,0.06c0.13,0,0.24-0.01,0.33-0.05
				c0.09-0.03,0.16-0.08,0.21-0.14s0.07-0.13,0.07-0.22c0-0.08-0.03-0.15-0.08-0.21c-0.05-0.06-0.16-0.11-0.3-0.14l-0.61-0.14
				c-0.17-0.04-0.31-0.09-0.41-0.15c-0.11-0.07-0.19-0.15-0.24-0.25c-0.05-0.1-0.08-0.21-0.08-0.32c0-0.16,0.04-0.3,0.13-0.43
				c0.09-0.13,0.21-0.23,0.37-0.31C140.74,185.56,140.94,185.52,141.16,185.52z"/>
			<path class="st9" d="M144.3,186.24v0.35h-1.57v-0.35H144.3z M143.58,185.62v2.08c0,0.1,0.03,0.18,0.08,0.23
				c0.05,0.05,0.13,0.07,0.22,0.07c0.08,0,0.14-0.01,0.2-0.04s0.11-0.06,0.15-0.1l0.1,0.33c-0.06,0.06-0.14,0.1-0.24,0.13
				c-0.09,0.03-0.2,0.05-0.31,0.05c-0.12,0-0.23-0.02-0.33-0.06c-0.1-0.04-0.18-0.1-0.23-0.19s-0.08-0.2-0.09-0.35v-2.03
				L143.58,185.62z"/>
			<path class="st9" d="M144.87,188.33v-2.09h0.38l0.04,0.38c0.06-0.14,0.14-0.24,0.25-0.31s0.25-0.11,0.41-0.11
				c0.04,0,0.08,0,0.13,0.01s0.08,0.02,0.1,0.03l-0.06,0.39c-0.03-0.01-0.06-0.02-0.1-0.03c-0.04-0.01-0.09-0.01-0.15-0.01
				c-0.09,0-0.17,0.02-0.26,0.07c-0.08,0.05-0.15,0.11-0.21,0.21c-0.05,0.09-0.08,0.21-0.08,0.35v1.11H144.87z"/>
			<path class="st9" d="M147.94,186.99c0-0.14-0.04-0.25-0.12-0.32c-0.08-0.08-0.18-0.12-0.32-0.12c-0.13,0-0.23,0.03-0.32,0.09
				s-0.15,0.15-0.2,0.28l-0.38-0.16c0.05-0.17,0.16-0.31,0.31-0.41c0.16-0.1,0.36-0.15,0.6-0.15c0.17,0,0.32,0.03,0.44,0.08
				s0.23,0.14,0.3,0.25c0.07,0.11,0.11,0.25,0.11,0.42v0.93c0,0.1,0.05,0.15,0.15,0.15c0.05,0,0.1-0.01,0.15-0.02l-0.02,0.31
				c-0.06,0.03-0.15,0.05-0.24,0.05c-0.09,0-0.17-0.02-0.24-0.05s-0.13-0.08-0.17-0.15s-0.06-0.15-0.06-0.25v-0.03l0.09,0
				c-0.02,0.11-0.08,0.2-0.15,0.27s-0.17,0.12-0.27,0.16c-0.1,0.04-0.21,0.05-0.31,0.05c-0.13,0-0.25-0.02-0.35-0.06
				c-0.1-0.04-0.19-0.11-0.25-0.19c-0.06-0.08-0.09-0.19-0.09-0.32c0-0.16,0.05-0.29,0.15-0.39s0.25-0.17,0.43-0.21l0.81-0.16
				l0,0.31l-0.59,0.12c-0.12,0.02-0.21,0.05-0.26,0.1s-0.09,0.1-0.09,0.18c0,0.08,0.03,0.14,0.09,0.19s0.14,0.07,0.24,0.07
				c0.07,0,0.14-0.01,0.2-0.03c0.07-0.02,0.12-0.04,0.18-0.08c0.05-0.04,0.09-0.09,0.12-0.15c0.03-0.06,0.04-0.13,0.04-0.22V186.99z
				"/>
			<path class="st9" d="M150.57,186.24v0.35H149v-0.35H150.57z M149.85,185.62v2.08c0,0.1,0.03,0.18,0.08,0.23
				c0.05,0.05,0.13,0.07,0.22,0.07c0.08,0,0.14-0.01,0.2-0.04s0.11-0.06,0.15-0.1l0.1,0.33c-0.06,0.06-0.14,0.1-0.24,0.13
				c-0.09,0.03-0.2,0.05-0.31,0.05c-0.12,0-0.23-0.02-0.33-0.06c-0.1-0.04-0.18-0.1-0.23-0.19s-0.08-0.2-0.09-0.35v-2.03
				L149.85,185.62z"/>
			<path class="st9" d="M152.06,188.37c-0.21,0-0.39-0.04-0.55-0.13s-0.28-0.21-0.37-0.38s-0.13-0.36-0.13-0.58
				c0-0.23,0.04-0.42,0.13-0.58s0.21-0.29,0.37-0.38c0.16-0.09,0.33-0.13,0.53-0.13c0.2,0,0.38,0.04,0.52,0.12
				c0.14,0.08,0.25,0.2,0.33,0.34c0.08,0.14,0.11,0.31,0.11,0.49c0,0.05,0,0.1,0,0.14c0,0.04-0.01,0.08-0.01,0.12h-1.68v-0.34h1.49
				l-0.22,0.07c0-0.19-0.05-0.33-0.14-0.44c-0.1-0.1-0.22-0.15-0.39-0.15c-0.12,0-0.22,0.03-0.31,0.08s-0.16,0.14-0.21,0.25
				s-0.07,0.25-0.07,0.4c0,0.16,0.03,0.29,0.08,0.4c0.05,0.11,0.12,0.19,0.21,0.25s0.2,0.08,0.33,0.08c0.14,0,0.25-0.03,0.34-0.08
				c0.09-0.05,0.16-0.13,0.21-0.22l0.36,0.17c-0.05,0.1-0.12,0.19-0.2,0.26c-0.09,0.07-0.19,0.13-0.3,0.17
				S152.2,188.37,152.06,188.37z"/>
			<path class="st9" d="M154.87,188c0.21,0,0.38,0.05,0.49,0.14c0.12,0.09,0.18,0.22,0.18,0.39c0,0.14-0.05,0.27-0.14,0.37
				c-0.09,0.11-0.22,0.19-0.38,0.24s-0.34,0.08-0.54,0.08c-0.34,0-0.6-0.05-0.76-0.16c-0.16-0.11-0.25-0.24-0.25-0.4
				c0-0.11,0.04-0.21,0.12-0.29c0.08-0.08,0.21-0.13,0.4-0.14l-0.02,0.07c-0.12-0.02-0.21-0.07-0.28-0.14s-0.11-0.16-0.11-0.28
				s0.05-0.22,0.14-0.31c0.09-0.08,0.22-0.13,0.39-0.15l0.23,0.11h-0.05c-0.13,0.01-0.22,0.04-0.27,0.09
				c-0.05,0.05-0.08,0.1-0.08,0.16c0,0.07,0.03,0.12,0.08,0.15c0.05,0.03,0.12,0.05,0.22,0.05H154.87z M154.47,186.19
				c0.18,0,0.34,0.03,0.48,0.09c0.14,0.06,0.24,0.14,0.31,0.25c0.07,0.11,0.11,0.23,0.11,0.37s-0.04,0.27-0.11,0.37
				c-0.07,0.11-0.18,0.19-0.31,0.25c-0.14,0.06-0.29,0.09-0.48,0.09c-0.29,0-0.51-0.07-0.67-0.2s-0.23-0.3-0.23-0.51
				c0-0.14,0.04-0.27,0.11-0.37c0.08-0.11,0.18-0.19,0.32-0.25S154.29,186.19,154.47,186.19z M154.48,188.89
				c0.15,0,0.28-0.01,0.38-0.04s0.17-0.07,0.22-0.11s0.07-0.1,0.07-0.15c0-0.06-0.03-0.12-0.08-0.16c-0.05-0.04-0.14-0.06-0.28-0.06
				h-0.67c-0.08,0-0.14,0.02-0.2,0.06s-0.08,0.1-0.08,0.17c0,0.09,0.06,0.17,0.17,0.22C154.13,188.87,154.28,188.89,154.48,188.89z
				 M154.47,186.51c-0.13,0-0.24,0.04-0.32,0.11c-0.09,0.07-0.13,0.17-0.13,0.29s0.04,0.22,0.13,0.29c0.08,0.07,0.19,0.11,0.32,0.11
				c0.13,0,0.24-0.04,0.32-0.11s0.13-0.17,0.13-0.29s-0.04-0.22-0.13-0.29S154.6,186.51,154.47,186.51z M155.53,185.8l0.07,0.35
				c-0.01,0-0.02,0-0.02,0c-0.01,0-0.02,0-0.03,0c-0.13,0-0.24,0.03-0.31,0.09s-0.1,0.14-0.1,0.25l-0.22-0.1
				c0-0.11,0.02-0.21,0.07-0.3s0.12-0.16,0.2-0.21c0.09-0.05,0.19-0.08,0.3-0.08c0.01,0,0.01,0,0.02,0
				C155.52,185.8,155.52,185.8,155.53,185.8z"/>
			<path class="st9" d="M157.91,186.24l-0.92,2.34c-0.06,0.16-0.13,0.29-0.2,0.38c-0.07,0.1-0.15,0.16-0.25,0.21
				c-0.09,0.04-0.2,0.06-0.32,0.06c-0.1,0-0.19-0.01-0.28-0.04c-0.09-0.03-0.16-0.06-0.22-0.11l0.11-0.35
				c0.05,0.04,0.11,0.08,0.17,0.1s0.12,0.03,0.19,0.03c0.08,0,0.14-0.02,0.2-0.06c0.06-0.04,0.11-0.12,0.16-0.24l0.09-0.23
				l-0.22-0.52l-0.65-1.59h0.5l0.46,1.32l0.12,0.39l0.14-0.43l0.44-1.28H157.91z"/>
			<path class="st9" d="M161.18,186.24v0.35h-1.51v-0.35H161.18z M160.79,185.26c0.09,0,0.17,0.01,0.24,0.03
				c0.07,0.02,0.12,0.04,0.16,0.07l-0.08,0.32c-0.03-0.02-0.07-0.03-0.1-0.04s-0.08-0.01-0.13-0.01c-0.11,0-0.2,0.03-0.27,0.08
				c-0.07,0.05-0.1,0.14-0.1,0.26v0.31l0.01,0.11v1.94h-0.45v-2.39c0-0.11,0.02-0.2,0.05-0.29s0.08-0.15,0.14-0.21
				c0.06-0.06,0.14-0.1,0.23-0.13S160.68,185.26,160.79,185.26z"/>
			<path class="st9" d="M162.61,186.19c0.2,0,0.38,0.04,0.54,0.13c0.16,0.09,0.28,0.21,0.37,0.38s0.13,0.36,0.13,0.58
				c0,0.23-0.04,0.42-0.13,0.58s-0.21,0.29-0.37,0.38c-0.16,0.09-0.34,0.13-0.54,0.13c-0.2,0-0.38-0.04-0.54-0.13
				s-0.28-0.21-0.37-0.38s-0.13-0.36-0.13-0.58c0-0.23,0.04-0.42,0.13-0.58s0.21-0.29,0.37-0.38
				C162.23,186.24,162.41,186.19,162.61,186.19z M162.61,186.55c-0.13,0-0.23,0.03-0.32,0.09c-0.09,0.06-0.16,0.14-0.2,0.25
				c-0.05,0.11-0.07,0.24-0.07,0.4c0,0.16,0.02,0.29,0.07,0.4c0.05,0.11,0.11,0.19,0.2,0.25c0.09,0.06,0.19,0.09,0.32,0.09
				c0.13,0,0.23-0.03,0.32-0.09c0.09-0.06,0.15-0.14,0.2-0.25c0.05-0.11,0.07-0.24,0.07-0.4c0-0.16-0.02-0.29-0.07-0.4
				c-0.05-0.11-0.11-0.19-0.2-0.25C162.85,186.57,162.74,186.55,162.61,186.55z"/>
			<path class="st9" d="M164.34,188.33v-2.09h0.38l0.04,0.38c0.06-0.14,0.14-0.24,0.25-0.31s0.25-0.11,0.41-0.11
				c0.04,0,0.08,0,0.13,0.01s0.08,0.02,0.1,0.03l-0.06,0.39c-0.03-0.01-0.06-0.02-0.1-0.03c-0.04-0.01-0.09-0.01-0.15-0.01
				c-0.09,0-0.17,0.02-0.26,0.07c-0.08,0.05-0.15,0.11-0.21,0.21c-0.05,0.09-0.08,0.21-0.08,0.35v1.11H164.34z"/>
			<path class="st9" d="M169.8,185.57l-0.99,1.7v1.06h-0.45v-1.06l-0.98-1.7h0.5l0.49,0.89l0.22,0.41l0.22-0.41l0.49-0.89H169.8z"/>
			<path class="st9" d="M171.22,186.19c0.2,0,0.38,0.04,0.54,0.13c0.16,0.09,0.28,0.21,0.37,0.38s0.13,0.36,0.13,0.58
				c0,0.23-0.04,0.42-0.13,0.58s-0.21,0.29-0.37,0.38c-0.16,0.09-0.34,0.13-0.54,0.13c-0.2,0-0.38-0.04-0.54-0.13
				s-0.28-0.21-0.37-0.38s-0.13-0.36-0.13-0.58c0-0.23,0.04-0.42,0.13-0.58s0.21-0.29,0.37-0.38
				C170.84,186.24,171.02,186.19,171.22,186.19z M171.22,186.55c-0.13,0-0.23,0.03-0.32,0.09c-0.09,0.06-0.16,0.14-0.2,0.25
				c-0.05,0.11-0.07,0.24-0.07,0.4c0,0.16,0.02,0.29,0.07,0.4c0.05,0.11,0.11,0.19,0.2,0.25c0.09,0.06,0.19,0.09,0.32,0.09
				c0.13,0,0.23-0.03,0.32-0.09c0.09-0.06,0.15-0.14,0.2-0.25c0.05-0.11,0.07-0.24,0.07-0.4c0-0.16-0.02-0.29-0.07-0.4
				c-0.05-0.11-0.11-0.19-0.2-0.25C171.45,186.57,171.35,186.55,171.22,186.55z"/>
			<path class="st9" d="M173.7,188.37c-0.14,0-0.26-0.03-0.38-0.08c-0.12-0.05-0.21-0.13-0.28-0.24s-0.1-0.26-0.1-0.44v-1.38h0.45
				v1.27c0,0.19,0.04,0.32,0.12,0.39c0.08,0.07,0.19,0.11,0.34,0.11c0.07,0,0.14-0.01,0.2-0.04s0.12-0.06,0.18-0.11
				c0.05-0.05,0.09-0.12,0.12-0.2s0.04-0.18,0.04-0.29v-1.13h0.45v2.09h-0.39l-0.02-0.34c-0.07,0.13-0.17,0.23-0.29,0.29
				C174.01,188.34,173.86,188.37,173.7,188.37z"/>
			<path class="st9" d="M175.66,188.33v-2.09h0.38l0.04,0.38c0.06-0.14,0.14-0.24,0.25-0.31s0.25-0.11,0.41-0.11
				c0.04,0,0.08,0,0.13,0.01s0.08,0.02,0.1,0.03l-0.06,0.39c-0.03-0.01-0.06-0.02-0.1-0.03c-0.04-0.01-0.09-0.01-0.15-0.01
				c-0.09,0-0.17,0.02-0.26,0.07c-0.08,0.05-0.15,0.11-0.21,0.21c-0.05,0.09-0.08,0.21-0.08,0.35v1.11H175.66z"/>
			<path class="st9" d="M180.22,185.52c0.27,0,0.5,0.06,0.69,0.17c0.2,0.12,0.35,0.28,0.45,0.49s0.16,0.47,0.16,0.76
				s-0.05,0.55-0.16,0.76c-0.11,0.21-0.26,0.38-0.45,0.49s-0.43,0.17-0.69,0.17c-0.27,0-0.5-0.06-0.69-0.17s-0.35-0.28-0.45-0.49
				c-0.11-0.21-0.16-0.47-0.16-0.76s0.05-0.55,0.16-0.76s0.26-0.38,0.45-0.49C179.72,185.58,179.95,185.52,180.22,185.52z
				 M180.22,185.91c-0.17,0-0.32,0.04-0.45,0.12c-0.12,0.08-0.22,0.2-0.29,0.35s-0.1,0.34-0.1,0.56c0,0.22,0.03,0.4,0.1,0.56
				c0.07,0.15,0.16,0.27,0.29,0.35c0.12,0.08,0.27,0.12,0.45,0.12c0.18,0,0.33-0.04,0.45-0.12c0.12-0.08,0.22-0.2,0.29-0.35
				c0.07-0.16,0.1-0.34,0.1-0.56c0-0.22-0.03-0.41-0.1-0.56s-0.16-0.27-0.29-0.35C180.55,185.95,180.4,185.91,180.22,185.91z"/>
			<path class="st9" d="M182.25,188.33v-2.09h0.38l0.04,0.38c0.06-0.14,0.14-0.24,0.25-0.31s0.25-0.11,0.41-0.11
				c0.04,0,0.08,0,0.13,0.01s0.08,0.02,0.1,0.03l-0.06,0.39c-0.03-0.01-0.06-0.02-0.1-0.03c-0.04-0.01-0.09-0.01-0.15-0.01
				c-0.09,0-0.17,0.02-0.26,0.07c-0.08,0.05-0.15,0.11-0.21,0.21c-0.05,0.09-0.08,0.21-0.08,0.35v1.11H182.25z"/>
			<path class="st9" d="M185.29,188c0.21,0,0.38,0.05,0.49,0.14c0.12,0.09,0.18,0.22,0.18,0.39c0,0.14-0.05,0.27-0.14,0.37
				c-0.09,0.11-0.22,0.19-0.38,0.24s-0.34,0.08-0.54,0.08c-0.34,0-0.6-0.05-0.76-0.16c-0.16-0.11-0.25-0.24-0.25-0.4
				c0-0.11,0.04-0.21,0.12-0.29c0.08-0.08,0.21-0.13,0.4-0.14l-0.02,0.07c-0.12-0.02-0.21-0.07-0.28-0.14s-0.11-0.16-0.11-0.28
				s0.05-0.22,0.14-0.31c0.09-0.08,0.22-0.13,0.39-0.15l0.23,0.11h-0.05c-0.13,0.01-0.22,0.04-0.27,0.09
				c-0.05,0.05-0.08,0.1-0.08,0.16c0,0.07,0.03,0.12,0.08,0.15c0.05,0.03,0.12,0.05,0.22,0.05H185.29z M184.89,186.19
				c0.18,0,0.34,0.03,0.48,0.09c0.14,0.06,0.24,0.14,0.31,0.25c0.07,0.11,0.11,0.23,0.11,0.37s-0.04,0.27-0.11,0.37
				c-0.07,0.11-0.18,0.19-0.31,0.25c-0.14,0.06-0.29,0.09-0.48,0.09c-0.29,0-0.51-0.07-0.67-0.2s-0.23-0.3-0.23-0.51
				c0-0.14,0.04-0.27,0.11-0.37c0.08-0.11,0.18-0.19,0.32-0.25S184.71,186.19,184.89,186.19z M184.91,188.89
				c0.15,0,0.28-0.01,0.38-0.04s0.17-0.07,0.22-0.11s0.07-0.1,0.07-0.15c0-0.06-0.03-0.12-0.08-0.16c-0.05-0.04-0.14-0.06-0.28-0.06
				h-0.67c-0.08,0-0.14,0.02-0.2,0.06s-0.08,0.1-0.08,0.17c0,0.09,0.06,0.17,0.17,0.22C184.56,188.87,184.71,188.89,184.91,188.89z
				 M184.89,186.51c-0.13,0-0.24,0.04-0.32,0.11c-0.09,0.07-0.13,0.17-0.13,0.29s0.04,0.22,0.13,0.29c0.08,0.07,0.19,0.11,0.32,0.11
				c0.13,0,0.24-0.04,0.32-0.11s0.13-0.17,0.13-0.29s-0.04-0.22-0.13-0.29S185.02,186.51,184.89,186.51z M185.96,185.8l0.07,0.35
				c-0.01,0-0.02,0-0.02,0c-0.01,0-0.02,0-0.03,0c-0.13,0-0.24,0.03-0.31,0.09s-0.1,0.14-0.1,0.25l-0.22-0.1
				c0-0.11,0.02-0.21,0.07-0.3s0.12-0.16,0.2-0.21c0.09-0.05,0.19-0.08,0.3-0.08c0.01,0,0.01,0,0.02,0
				C185.94,185.8,185.95,185.8,185.96,185.8z"/>
			<path class="st9" d="M187.71,186.99c0-0.14-0.04-0.25-0.12-0.32c-0.08-0.08-0.18-0.12-0.32-0.12c-0.13,0-0.23,0.03-0.32,0.09
				s-0.15,0.15-0.2,0.28l-0.38-0.16c0.05-0.17,0.16-0.31,0.31-0.41c0.16-0.1,0.36-0.15,0.6-0.15c0.17,0,0.32,0.03,0.44,0.08
				s0.23,0.14,0.3,0.25c0.07,0.11,0.11,0.25,0.11,0.42v0.93c0,0.1,0.05,0.15,0.15,0.15c0.05,0,0.1-0.01,0.15-0.02l-0.02,0.31
				c-0.06,0.03-0.15,0.05-0.24,0.05c-0.09,0-0.17-0.02-0.24-0.05s-0.13-0.08-0.17-0.15s-0.06-0.15-0.06-0.25v-0.03l0.09,0
				c-0.02,0.11-0.08,0.2-0.15,0.27s-0.17,0.12-0.27,0.16c-0.1,0.04-0.21,0.05-0.31,0.05c-0.13,0-0.25-0.02-0.35-0.06
				c-0.1-0.04-0.19-0.11-0.25-0.19c-0.06-0.08-0.09-0.19-0.09-0.32c0-0.16,0.05-0.29,0.15-0.39s0.25-0.17,0.43-0.21l0.81-0.16
				l0,0.31l-0.59,0.12c-0.12,0.02-0.21,0.05-0.26,0.1s-0.09,0.1-0.09,0.18c0,0.08,0.03,0.14,0.09,0.19s0.14,0.07,0.24,0.07
				c0.07,0,0.14-0.01,0.2-0.03c0.07-0.02,0.12-0.04,0.18-0.08c0.05-0.04,0.09-0.09,0.12-0.15c0.03-0.06,0.04-0.13,0.04-0.22V186.99z
				"/>
			<path class="st9" d="M189.01,188.33v-2.09h0.4l0.03,0.54l-0.06-0.06c0.04-0.12,0.1-0.22,0.17-0.3c0.07-0.08,0.16-0.14,0.26-0.17
				c0.1-0.04,0.21-0.05,0.32-0.05c0.15,0,0.28,0.03,0.4,0.08c0.12,0.06,0.21,0.14,0.28,0.26s0.1,0.26,0.1,0.44v1.36h-0.45v-1.22
				c0-0.21-0.04-0.35-0.13-0.43c-0.08-0.08-0.19-0.12-0.32-0.12c-0.09,0-0.18,0.02-0.27,0.06c-0.09,0.04-0.16,0.11-0.22,0.21
				c-0.06,0.1-0.09,0.22-0.09,0.38v1.11H189.01z"/>
			<path class="st9" d="M191.95,185.88c-0.1,0-0.17-0.02-0.22-0.07s-0.08-0.12-0.08-0.21c0-0.09,0.03-0.16,0.08-0.21
				s0.13-0.07,0.22-0.07c0.09,0,0.17,0.02,0.22,0.07s0.08,0.12,0.08,0.21c0,0.09-0.03,0.16-0.08,0.21S192.05,185.88,191.95,185.88z
				 M192.18,186.24v2.09h-0.45v-2.09H192.18z"/>
			<path class="st9" d="M192.87,188.33v-0.31l1.01-1.18l0.26-0.26l-0.36,0.01h-0.9v-0.35h1.75v0.31l-1.01,1.18l-0.25,0.26l0.4-0.01
				h0.9v0.35H192.87z"/>
			<path class="st9" d="M196.55,186.99c0-0.14-0.04-0.25-0.12-0.32c-0.08-0.08-0.18-0.12-0.32-0.12c-0.13,0-0.23,0.03-0.32,0.09
				s-0.15,0.15-0.2,0.28l-0.38-0.16c0.05-0.17,0.16-0.31,0.31-0.41c0.16-0.1,0.36-0.15,0.6-0.15c0.17,0,0.32,0.03,0.44,0.08
				s0.23,0.14,0.3,0.25c0.07,0.11,0.11,0.25,0.11,0.42v0.93c0,0.1,0.05,0.15,0.15,0.15c0.05,0,0.1-0.01,0.15-0.02l-0.02,0.31
				c-0.06,0.03-0.15,0.05-0.24,0.05c-0.09,0-0.17-0.02-0.24-0.05s-0.13-0.08-0.17-0.15s-0.06-0.15-0.06-0.25v-0.03l0.09,0
				c-0.02,0.11-0.08,0.2-0.15,0.27s-0.17,0.12-0.27,0.16c-0.1,0.04-0.21,0.05-0.31,0.05c-0.13,0-0.25-0.02-0.35-0.06
				c-0.1-0.04-0.19-0.11-0.25-0.19c-0.06-0.08-0.09-0.19-0.09-0.32c0-0.16,0.05-0.29,0.15-0.39s0.25-0.17,0.43-0.21l0.81-0.16
				l0,0.31l-0.59,0.12c-0.12,0.02-0.21,0.05-0.26,0.1s-0.09,0.1-0.09,0.18c0,0.08,0.03,0.14,0.09,0.19s0.14,0.07,0.24,0.07
				c0.07,0,0.14-0.01,0.2-0.03c0.07-0.02,0.12-0.04,0.18-0.08c0.05-0.04,0.09-0.09,0.12-0.15c0.03-0.06,0.04-0.13,0.04-0.22V186.99z
				"/>
			<path class="st9" d="M199.18,186.24v0.35h-1.57v-0.35H199.18z M198.46,185.62v2.08c0,0.1,0.03,0.18,0.08,0.23
				c0.05,0.05,0.13,0.07,0.22,0.07c0.08,0,0.14-0.01,0.2-0.04s0.11-0.06,0.15-0.1l0.1,0.33c-0.06,0.06-0.14,0.1-0.24,0.13
				c-0.09,0.03-0.2,0.05-0.31,0.05c-0.12,0-0.23-0.02-0.33-0.06c-0.1-0.04-0.18-0.1-0.23-0.19s-0.08-0.2-0.09-0.35v-2.03
				L198.46,185.62z"/>
			<path class="st9" d="M199.98,185.88c-0.1,0-0.17-0.02-0.22-0.07s-0.08-0.12-0.08-0.21c0-0.09,0.03-0.16,0.08-0.21
				s0.13-0.07,0.22-0.07c0.09,0,0.17,0.02,0.22,0.07s0.08,0.12,0.08,0.21c0,0.09-0.03,0.16-0.08,0.21S200.08,185.88,199.98,185.88z
				 M200.2,186.24v2.09h-0.45v-2.09H200.2z"/>
			<path class="st9" d="M201.94,186.19c0.2,0,0.38,0.04,0.54,0.13c0.16,0.09,0.28,0.21,0.37,0.38s0.13,0.36,0.13,0.58
				c0,0.23-0.04,0.42-0.13,0.58s-0.21,0.29-0.37,0.38c-0.16,0.09-0.34,0.13-0.54,0.13c-0.2,0-0.38-0.04-0.54-0.13
				s-0.28-0.21-0.37-0.38s-0.13-0.36-0.13-0.58c0-0.23,0.04-0.42,0.13-0.58s0.21-0.29,0.37-0.38
				C201.55,186.24,201.73,186.19,201.94,186.19z M201.94,186.55c-0.13,0-0.23,0.03-0.32,0.09c-0.09,0.06-0.16,0.14-0.2,0.25
				c-0.05,0.11-0.07,0.24-0.07,0.4c0,0.16,0.02,0.29,0.07,0.4c0.05,0.11,0.11,0.19,0.2,0.25c0.09,0.06,0.19,0.09,0.32,0.09
				c0.13,0,0.23-0.03,0.32-0.09c0.09-0.06,0.15-0.14,0.2-0.25c0.05-0.11,0.07-0.24,0.07-0.4c0-0.16-0.02-0.29-0.07-0.4
				c-0.05-0.11-0.11-0.19-0.2-0.25C202.17,186.57,202.06,186.55,201.94,186.55z"/>
			<path class="st9" d="M203.66,188.33v-2.09h0.4l0.03,0.54l-0.06-0.06c0.04-0.12,0.1-0.22,0.17-0.3c0.07-0.08,0.16-0.14,0.26-0.17
				c0.1-0.04,0.21-0.05,0.32-0.05c0.15,0,0.28,0.03,0.4,0.08c0.12,0.06,0.21,0.14,0.28,0.26s0.1,0.26,0.1,0.44v1.36h-0.45v-1.22
				c0-0.21-0.04-0.35-0.13-0.43c-0.08-0.08-0.19-0.12-0.32-0.12c-0.09,0-0.18,0.02-0.27,0.06c-0.09,0.04-0.16,0.11-0.22,0.21
				c-0.06,0.1-0.09,0.22-0.09,0.38v1.11H203.66z"/>
		</g>
	</g>
</g>
<g id="Layer_2">
</g>
</svg>
